# xmcd
# 
# Track frame offsets:
#     150
#     17601
#     38582
#     50762
#     68459
#     82641
#     105235
#     123070
#     134265
#     148072
#     163335
#     176019
#     195884
#     213945
#     226843
#     241555
#     266060
#     280145
#     303098
#     322835
#     334967
# 
# Disc length: 4731
# 
# Revision: 0
# Processed by: cddbd v1.5.2PL0 Copyright (c) Steve Scherf et al.
# Submitted via: fre:ac v1.0.31
# 
DISCID=09127915
DTITLE=Various Artist - StoMo's Artist Collection: Blues and Boogie Vol. 1
DYEAR=2008
DGENRE=Blues
TTITLE0=Little Willie Littlefield - One Scotch, One Bourbon, One Beer
TTITLE1=Farrell and Black - Can't Get Over Losin' You
TTITLE2=Henning Pertiet - Big Block
TTITLE3=New Orleans Organ Trio (NOOT) - Worried Man Blues
TTITLE4=Calo Rapallo - Ich denk an dich
TTITLE5=Steve "Big Man" Clayton - Going Back To Birmingham
TTITLE6=LowFi Kings and Oliver Mally - Can´t Wait To See My Baby
TTITLE7=Peter Crow C. - I Don´t Care No More
TTITLE8=Jan Preston - Memories Of Albert
TTITLE9=Gospel 4 - Music In The Air
TTITLE10=Richard Ray Farell - Ain´t Got A Home
TTITLE11=Paul Orta - Boogie Till You Trop
TTITLE12=Vince Weber - He Was A Friend Of Mine
TTITLE13=Crazy Hambones - Hambone Boogie
TTITLE14=The Street Rats - Liberation Of The Rats
TTITLE15=Fritz Cats - Proud Mary
TTITLE16=Top Dog Brass Band - PIN Strike
TTITLE17=Violin Experience - Aliena
TTITLE18=Boogaloo Kings - Lady Godiva Ride
TTITLE19=Röby Wark - Guilty
TTITLE20=Soundsville - Farewell
EXTD=
EXTT0=
EXTT1=
EXTT2=
EXTT3=
EXTT4=
EXTT5=
EXTT6=
EXTT7=
EXTT8=
EXTT9=
EXTT10=
EXTT11=
EXTT12=
EXTT13=
EXTT14=
EXTT15=
EXTT16=
EXTT17=
EXTT18=
EXTT19=
EXTT20=
PLAYORDER=
